<?xml version="1.0" encoding="utf-8"?>
<!-- Generator: Adobe Illustrator 12.0.1, SVG Export Plug-In . SVG Version: 6.00 Build 51448)  -->
<!DOCTYPE svg PUBLIC "-//W3C//DTD SVG 1.1//EN" "http://www.w3.org/Graphics/SVG/1.1/DTD/svg11.dtd" [
	<!ENTITY ns_svg "http://www.w3.org/2000/svg">
	<!ENTITY ns_xlink "http://www.w3.org/1999/xlink">
]>
<svg  version="1.1" id="レイヤー_1" xmlns="&ns_svg;" xmlns:xlink="&ns_xlink;" width="293" height="32" viewBox="0 0 293 32"
	 overflow="visible" enable-background="new 0 0 293 32" xml:space="preserve">
<rect x="0.083" fill="#EF8100" width="32.003" height="32"/>
<g>
	<polygon fill="#FFFFFF" points="3.032,17.553 3.032,28.149 5.856,28.149 5.856,19.647 8.444,19.647 8.444,28.149 11.268,28.149 
		11.268,19.647 13.878,19.647 13.878,17.553 	"/>
	<path fill="#B81C22" d="M13.85,17.553h3.371c3.232,0,4.75,1.093,4.75,3.477c0,2.14-1.561,3.415-4.203,3.415h-1.094v3.705H13.85
		V17.553z M16.673,22.441h0.729c0.972,0,1.747-0.35,1.747-1.457c0-1.08-0.775-1.428-1.747-1.428h-0.729V22.441z"/>
	<path fill="#B81C22" d="M21.94,17.553h2.825v8.502h4.375v2.095H21.94V17.553z"/>
</g>
<path d="M85.143,1.408c3.107,0,5.252,4.406,5.252,9.6c0,5.356-2.079,9.312-5.252,9.312h-7.119V32h-5.287V1.408H85.143z
	 M78.024,16.467h4.868c1.64,0,2.454-1.848,2.454-5.516c0-3.832-0.814-5.722-2.454-5.722h-4.868V16.467z"/>
<path d="M102.323,7.713c4.157,0,5.689,1.636,5.689,7.502V32H94.717c-2.875,0-4.934-3.221-4.934-7.539
	c0-4.286,2.059-7.665,4.934-7.665h8.019v-2.082c0-2.527-0.546-3.181-2.052-3.181h-8.146v-3.82H102.323z M98.443,20.51
	c-2.837,0-3.517,0.952-3.517,3.593c0,2.778,0.451,4.144,1.371,4.144h6.396V20.51H98.443z"/>
<path d="M156.197,7.713h-18.791V1.408h-5.346v6.305h-13.182c-4.867,0-7.388,2.211-7.388,7.386V32h5.279V16.02
	c0-4.044,0.546-4.486,3.21-4.486h12.08v14.019c0,5.203,1.197,6.448,5.693,6.448h3.545v-3.754c-3.682,0-3.893-0.192-3.893-3.49
	V11.533h6.641V32h5.281V11.533h5.24c1.492,0,2.041,0.844,2.041,4.102V32h5.211V15.215C161.82,9.349,160.287,7.713,156.197,7.713z"/>
<path d="M177.33,7.713c2.875,0,4.676,2.241,4.676,7.203c0,4.995-1.551,7.013-4.676,7.013h-7.863v2.149
	c0,3.666,0.574,4.168,2.701,4.168h7.971V32h-10.355c-3.957,0-5.627-2.041-5.627-7.951v-8.414c0-5.874,1.67-7.922,5.627-7.922H177.33
	z M169.467,18.443h5.719c1.496,0,2.023-0.423,2.023-3.563c0-3-0.377-3.347-2.023-3.347h-3.629c-1.678,0-2.09,0.881-2.09,4.036
	V18.443z"/>
<path d="M210.385,17.301h-7.188c-1.186,0-1.873-0.937-1.873-2.875c0-2.126,0.688-2.893,1.873-2.893h10.467v-3.82h-11.652
	c-0.479,0-0.91,0.055-1.305,0.144V7.713h-9.061c-4.857,0-7.396,2.211-7.396,7.386V32h5.277V16.02c0-4.044,0.566-4.486,3.221-4.486
	h4.389c-0.27,0.951-0.412,2.042-0.412,3.269c0,4.169,1.609,7.301,4.867,7.301h7.475c0.908,0,1.492,0.958,1.492,3.036
	s-0.584,3.107-1.492,3.107h-11.625V32h12.744c3.305,0,5-2.856,5-7.724C215.186,20.368,213.461,17.301,210.385,17.301z"/>
<path d="M279.588,0v15.569h0.346l6.305-7.856h5.863l-9.313,9.898L292.916,32h-6.238l-6.371-9.935l-0.439-0.813h-0.279V32h-5.346V0
	H279.588z"/>
<path d="M266.012,7.713h-12.178v20.533h-5.727V7.713h-11.336v3.82h6.045v16.713h-17.492V1.408h-5.281V32h39.061V11.533h5.25
	c1.498,0,2.061,0.844,2.061,4.102V32h5.191V15.215C271.605,9.349,270.096,7.713,266.012,7.713z M42.759,32h5.306V5.229h7.521V32
	H60.8V5.229h7.396V1.408H42.759V32z"/>
<rect x="242.863" y="0.461" fill="#EF8100" width="5.281" height="4.186"/>
</svg>
